<?xml version="1.0" encoding="utf-8"?>
<!-- Generator: Adobe Illustrator 15.0.0, SVG Export Plug-In . SVG Version: 6.00 Build 0)  -->
<!DOCTYPE svg PUBLIC "-//W3C//DTD SVG 1.1//EN" "http://www.w3.org/Graphics/SVG/1.1/DTD/svg11.dtd">
<svg version="1.1" xmlns="http://www.w3.org/2000/svg" xmlns:xlink="http://www.w3.org/1999/xlink" x="0px" y="0px"
	 width="236.228px" height="221.998px" viewBox="0 0 236.228 221.998" enable-background="new 0 0 236.228 221.998"
	 xml:space="preserve">
<g id="Layer_1" display="none">
	<g id="yZWhCp.tif">
		
			<image display="inline" overflow="visible" width="310" height="277" id="Layer_0_1_" xlink:href="783BD01C.png"  transform="matrix(1 0 0 1 -32.8975 -18.8755)">
		</image>
	</g>
	<path fill="#4FC2EE" d="M202.861,213.789c0,4.536-2.902,8.209-6.485,8.209H6.486c-3.583,0-6.486-3.673-6.486-8.209V46.877
		c0-4.533,2.903-8.208,6.486-8.208h189.89c3.583,0,6.485,3.675,6.485,8.208V213.789z"/>
	<g display="inline">
		<g>
			<path fill="#4FC2EE" d="M188.29,38.668H14.572c-6.826,0-12.359,5.534-12.359,12.359v158.61c0,6.826,5.534,12.359,12.359,12.359
				H188.29c6.825,0,12.358-5.533,12.358-12.359V51.028C200.648,44.202,195.115,38.668,188.29,38.668z M181.036,188.338
				c0,4.67-2.994,8.457-6.681,8.457H28.506c-3.689,0-6.68-3.787-6.68-8.457V72.324c0-4.669,2.991-8.454,6.68-8.454h145.85
				c3.687,0,6.681,3.785,6.681,8.454V188.338z"/>
		</g>
	</g>
	<path display="inline" fill="#4FC2EE" d="M100.228,128c0-23.231,17.478-42.369,40-45.011v-44.32c-48.169,3.974-86,43.493-86,91.665
		c0,48.172,37.831,87.689,86,91.664v-48.989C117.706,170.367,100.228,151.229,100.228,128z"/>
	<polygon display="inline" fill="#4FC2EE" points="140.228,0 140.228,127 236.228,53.5 	"/>
</g>
<g id="Layer_1_copy">
	<g id="yZWhCp.tif_1_" display="none">
		
			<image display="inline" overflow="visible" width="310" height="277" id="Layer_0_2_" xlink:href="783BD01D.png"  transform="matrix(1 0 0 1 -32.8975 -18.8755)">
		</image>
	</g>
	<path display="none" fill="#4FC2EE" d="M202.861,213.789c0,4.536-2.902,8.209-6.485,8.209H6.486c-3.583,0-6.486-3.673-6.486-8.209
		V46.877c0-4.533,2.903-8.208,6.486-8.208h189.89c3.583,0,6.485,3.675,6.485,8.208V213.789z"/>
	<g display="none">
		<g display="inline">
			<path fill="#60C6F2" d="M188.29,38.668H14.572c-6.826,0-12.359,5.534-12.359,12.359v158.61c0,6.826,5.534,12.359,12.359,12.359
				H188.29c6.825,0,12.358-5.533,12.358-12.359V51.028C200.648,44.202,195.115,38.668,188.29,38.668z M181.036,188.338
				c0,4.67-2.994,8.457-6.681,8.457H28.506c-3.689,0-6.68-3.787-6.68-8.457V72.324c0-4.669,2.991-8.454,6.68-8.454h145.85
				c3.687,0,6.681,3.785,6.681,8.454V188.338z"/>
		</g>
	</g>
	<path fill="#FFFFFF" d="M100.228,128c0-23.231,17.478-42.369,40-45.011v-44.32c-48.169,3.974-86,43.493-86,91.665
		c0,48.172,37.831,87.689,86,91.664v-48.989C117.706,170.367,100.228,151.229,100.228,128z"/>
	<polygon fill="#FFFFFF" points="140.228,0 140.228,127 236.228,53.5 	"/>
	<g>
		<g>
			<path fill="#FFFFFF" d="M190.861,38.668H12c-6.627,0-12,5.373-12,12v159.329c0,6.627,5.373,12,12,12h178.861
				c6.628,0,12-5.373,12-12V50.668C202.861,44.041,197.489,38.668,190.861,38.668z M175.476,185.393
				c0,6.436-5.217,11.653-11.652,11.653H39.038c-6.436,0-11.653-5.218-11.653-11.653V81.486c0-6.436,5.217-11.653,11.653-11.653
				h124.785c6.436,0,11.652,5.217,11.652,11.653V185.393z"/>
		</g>
	</g>
</g>
</svg>
